<svg width="44" height="44" viewBox="0 0 44 44" fill="none" xmlns="http://www.w3.org/2000/svg">
<path d="M22 44C34.1503 44 44 34.1503 44 22C44 9.84974 34.1503 0 22 0C9.84974 0 0 9.84974 0 22C0 34.1503 9.84974 44 22 44Z" fill="#178DD0"/>
<path d="M10.2612 22.8579C10.3748 21.845 10.4316 21.3385 10.8742 20.9833C11.3169 20.6282 11.8222 20.6823 12.8329 20.7905C13.2891 20.8395 13.8186 20.9027 14.4247 20.9847C14.9574 21.0567 15.4425 21.1683 15.8779 21.3004C16.7659 21.57 17.21 21.7048 17.8863 22.6168C18.5625 23.5289 18.5625 24.2622 18.5625 25.7289C18.5625 26.6318 18.5625 27.7776 18.5625 29.2187C18.5625 31.2436 18.5625 32.6853 18.5625 33.6896C18.5625 34.6604 18.5625 35.146 18.2604 35.4479C17.9585 35.75 17.4724 35.75 16.5005 35.75C15.7556 35.75 14.8996 35.75 14.0938 35.75C14.0379 35.75 13.9827 35.75 13.9278 35.75C12.33 35.7493 11.5312 35.749 10.9401 35.2073C10.3491 34.6655 10.2835 33.9167 10.1523 32.4189C10.0494 31.245 9.96875 29.8077 9.96875 28.1875C9.96875 26.0234 10.1127 24.1818 10.2612 22.8579Z" fill="white"/>
<path d="M33.395 22.8579C33.2815 21.845 33.2247 21.3385 32.7821 20.9833C32.3393 20.6282 31.834 20.6823 30.8234 20.7905C30.3671 20.8395 29.8376 20.9027 29.2315 20.9847C28.6989 21.0567 28.2138 21.1683 27.7783 21.3004C26.8903 21.57 26.4462 21.7048 25.77 22.6168C25.0938 23.5289 25.0938 24.2622 25.0938 25.7289C25.0938 26.6318 25.0938 27.7776 25.0938 29.2187C25.0938 31.2436 25.0938 32.6853 25.0938 33.6896C25.0938 34.6604 25.0937 35.146 25.3958 35.4479C25.6978 35.75 26.1838 35.75 27.1557 35.75C27.9007 35.75 28.7566 35.75 29.5625 35.75C29.6183 35.75 29.6736 35.75 29.7285 35.75C31.3262 35.7493 32.1251 35.749 32.7161 35.2073C33.3072 34.6655 33.3728 33.9167 33.5039 32.4189C33.6068 31.245 33.6875 29.8077 33.6875 28.1875C33.6875 26.0234 33.5435 24.1818 33.395 22.8579Z" fill="white"/>
<path d="M10 12.1393C10 10.5562 10 9.76462 10.4576 9.19771C10.5158 9.12563 10.5843 9.05189 10.6519 8.98853C11.1834 8.49023 11.9522 8.43322 13.4898 8.31921C15.6378 8.15993 18.5707 8 21.6875 8C24.8043 8 27.7372 8.15993 29.8852 8.31921C31.4228 8.43322 32.1915 8.49023 32.7231 8.98853C32.7908 9.05189 32.8592 9.12563 32.9174 9.19771C33.375 9.76462 33.375 10.5562 33.375 12.1393C33.375 13.7093 33.375 14.4943 32.9177 15.061C32.8599 15.1328 32.7908 15.2072 32.7237 15.2702C32.1925 15.7685 31.4336 15.8253 29.9158 15.9387C27.8219 16.0953 24.9326 16.25 21.6875 16.25C18.4424 16.25 15.5531 16.0953 13.4592 15.9387C11.9414 15.8253 11.1825 15.7685 10.6514 15.2702C10.5842 15.2072 10.5151 15.1328 10.4573 15.061C10 14.4943 10 13.7093 10 12.1393Z" fill="white"/>
</svg>
